Coordinates
version=1
nRows=17
nColumns=36
inDegrees=yes

Units are S.I. units (second, meters, Newtons, ...)
If the header above contains a line with 'inDegrees', this indicates whether rotational values are in degrees (yes) or radians (no).

endheader
time	pelvis_tilt	pelvis_list	pelvis_rotation	pelvis_tx	pelvis_ty	pelvis_tz	hip_flexion_r	hip_adduction_r	hip_rotation_r	knee_angle_r	knee_angle_r_beta	ankle_angle_r	subtalar_angle_r	mtp_angle_r	hip_flexion_l	hip_adduction_l	hip_rotation_l	knee_angle_l	knee_angle_l_beta	ankle_angle_l	subtalar_angle_l	mtp_angle_l	lumbar_extension	lumbar_bending	lumbar_rotation	arm_flex_r	arm_add_r	arm_rot_r	elbow_flex_r	pro_sup_r	arm_flex_l	arm_add_l	arm_rot_l	elbow_flex_l	pro_sup_l
      3.46666670	    -13.98978145	     -0.63261081	     -3.48231740	      0.28211076	      0.91753032	     -0.06607388	     11.06629274	     -3.31940294	     -1.33445876	      2.92778874	      0.05109955	      3.38136751	     -6.63686553	     -7.49999987	     10.25278875	     -5.98962181	      1.34024227	      3.18493327	      0.05558757	      3.26499410	     -7.42769370	     -7.49999987	     -0.95090581	      0.69824026	     -3.81890108	     -1.76036764	    -15.16587170	     65.23698170	      2.78108115	     34.75144405	     -5.77821213	    -14.38735601	     61.77079599	      3.02956214	     49.53869981
      3.47083330	    -13.82311355	     -0.61098396	     -3.55155360	      0.28220359	      0.92125114	     -0.06571023	     10.63291992	     -3.40120608	     -1.35756939	      2.51173405	      0.04383803	      3.38225986	     -6.27123263	     -7.49999987	      9.75879888	     -5.92191797	      0.95014236	      2.64978885	      0.04624754	      3.36756631	     -6.77275552	     -7.49999987	     -0.98281161	      0.66495175	     -3.89361524	     -1.73765837	    -15.34106636	     63.64693911	      2.78996091	     36.83787140	     -6.40024393	    -14.28355555	     61.08957142	      2.79479264	     50.50831233
      3.47500000	    -13.76433043	     -0.63753126	     -3.57685006	      0.28262821	      0.91667511	     -0.06604363	     10.35341856	     -3.46376334	     -1.19396669	      2.17315909	      0.03792878	      3.32257502	     -6.53318402	     -7.49999987	      9.49690823	     -5.89061296	      0.88392064	      2.31504602	      0.04040518	      3.37878089	     -6.88103646	     -7.49999987	     -0.93068207	      0.80833726	     -3.68988139	     -1.87008319	    -15.67769983	     61.58789993	      2.93081390	     35.42891066	     -6.89679561	    -14.21907485	     60.98294511	      2.63934092	     49.79923551
      3.47916670	    -13.66059377	     -0.66693362	     -3.62440744	      0.28276198	      0.91658732	     -0.06595340	     10.06218677	     -3.50283714	     -1.03584178	      1.89211790	      0.03302369	      3.28437207	     -6.68341273	     -7.49999987	      9.16298213	     -5.89875025	      0.57879765	      1.95809360	      0.03417518	      3.55839783	     -6.49773242	     -7.49999987	     -0.84103613	      0.81784872	     -3.99189075	     -1.79603503	    -15.71471746	     59.42774829	      2.94894447	     37.64646193	     -7.70394917	    -13.99279934	     60.05773994	      2.48229683	     51.08803883
      3.48333330	    -13.55655232	     -0.68623341	     -3.64121595	      0.28305533	      0.91734448	     -0.06611737	      9.78448358	     -3.53187331	     -1.04168542	      1.64821351	      0.02876675	      3.44238992	     -6.50640940	     -7.49999987	      8.88017045	     -5.90295236	      0.48129355	      1.66560851	      0.02907035	      3.57614886	     -6.45597032	     -7.49999987	     -0.74857155	      0.77564645	     -4.15290539	     -1.90932297	    -15.57007706	     55.02471327	      3.11639694	     37.72832569	     -8.28865650	    -13.83578209	     59.29747603	      2.37200810	     51.69549600
      3.48750000	    -13.48180463	     -0.70483694	     -3.68869235	      0.28321562	      0.91560782	     -0.06558817	      9.59526621	     -3.50887969	     -0.68260334	      1.45501329	      0.02539477	      3.35964063	     -6.95165581	     -7.49999987	      8.66342145	     -5.92761414	      0.39580813	      1.46247005	      0.02552492	      3.65541003	     -6.46117919	     -7.49999987	     -0.65887475	      0.77185109	     -4.28272516	     -1.96987793	    -15.52686419	     50.60547816	      3.25108610	     40.00944834	     -8.83365715	    -13.62282778	     57.96063208	      2.24777472	     53.29933315
      3.49166670	    -13.37821930	     -0.74227396	     -3.77882573	      0.28449639	      0.91315679	     -0.06733608	      9.35366782	     -3.51758618	     -0.60576859	      1.32552995	      0.02313486	      3.45486503	     -6.97224718	     -7.49999987	      8.40763064	     -5.95588776	      0.19213310	      1.27329660	      0.02222322	      3.96816507	     -6.07630641	     -7.49999987	     -0.53173680	      0.80190465	     -4.42696420	     -2.11023111	    -15.57660328	     46.99067538	      3.46007517	     41.12405094	     -9.36243545	    -13.47119438	     57.12148232	      2.15385814	     54.00397282
      3.49583330	    -13.30489106	     -0.75192667	     -3.83809372	      0.28478479	      0.91601120	     -0.06798531	      9.15858386	     -3.55359833	     -0.57234904	      1.19780011	      0.02090556	      3.59761314	     -6.80406685	     -7.49999987	      8.19931950	     -5.93320526	      0.06139671	      1.09886452	      0.01917880	      4.09716129	     -5.89381699	     -7.49999987	     -0.39428216	      0.81205363	     -4.64029559	     -2.11147648	    -15.66283594	     42.56325371	      3.75453676	     45.70724865	     -9.66957291	    -13.43999030	     55.12689910	      2.07077534	     55.91000033
      3.50000000	    -13.21955505	     -0.78738083	     -3.85089840	      0.28531082	      0.91435756	     -0.06914182	      8.96662591	     -3.61144329	     -0.59630223	      1.13063583	      0.01973332	      3.81913269	     -6.57812435	     -7.49999987	      7.99107482	     -5.92292223	     -0.02168328	      0.98821297	      0.01724757	      4.28416456	     -5.78363518	     -7.49999987	     -0.28599425	      0.92300440	     -4.72855232	     -2.27452898	    -15.71946245	     37.49952591	      3.91862640	     51.51924848	     -9.97332946	    -13.43940455	     53.56742976	      1.91679050	     57.60479650
      3.50416670	    -13.21565247	     -0.77306347	     -3.87033644	      0.28617298	      0.91544858	     -0.06870090	      8.85521019	     -3.67668022	     -0.54089463	      1.04933193	      0.01831430	      3.82416802	     -6.55735405	     -7.49999987	      7.87638550	     -5.88673341	     -0.02267268	      0.88494882	      0.01544527	      4.36212446	     -5.84907527	     -7.49999987	     -0.06200149	      0.95977151	     -4.68654454	     -2.76831056	    -15.69337693	     30.37937927	      4.79647390	     51.79019092	    -10.21443802	    -13.50057563	     51.67048298	      1.84038845	     57.30533137
      3.50833330	    -13.07773036	     -0.77988152	     -3.96339375	      0.28687501	      0.91606059	     -0.06955560	      8.61971230	     -3.72987533	     -0.33209171	      0.96287663	      0.01680537	      3.75396086	     -6.73920193	     -7.49999987	      7.60039986	     -5.85491470	     -0.35493635	      0.80085678	      0.01397759	      4.62518846	     -5.34292552	     -7.49999987	     -0.04819053	      1.03683152	     -4.51751153	     -3.32601003	    -15.76497605	     24.17225905	      5.83088050	     55.05742648	    -10.37585642	    -13.60861274	     50.24950228	      1.76777921	     57.86458790
      3.51250000	    -13.06774817	     -0.79442304	     -4.02857308	      0.28624751	      0.91387387	     -0.06860603	      8.57232936	     -3.72810992	     -0.41371915	      0.93718728	      0.01635700	      3.97539185	     -6.49682591	     -7.49999987	      7.51038299	     -5.85190643	     -0.47081907	      0.75206482	      0.01312601	      4.68844802	     -5.39528648	     -7.49999987	      0.18465576	      1.01505403	     -4.63150827	     -3.66728390	    -15.54834738	     17.78480802	      6.70589711	     56.57826417	    -10.78045953	    -13.58588601	     48.08126072	      1.72540377	     57.56517245
      3.51666670	    -12.99821817	     -0.82427850	     -4.06812233	      0.28599617	      0.91218258	     -0.06896675	      8.46972619	     -3.70190088	     -0.36604899	      0.90836431	      0.01585395	      4.06368121	     -6.64439689	     -7.49999987	      7.39939772	     -5.87375643	     -0.69587463	      0.74104823	      0.01293373	      4.92012404	     -5.17929277	     -7.49999987	      0.30071716	      0.97207850	     -4.75933053	     -3.94684799	    -15.41722567	     14.21778072	      7.47467767	     57.72589944	    -11.06904588	    -13.61783704	     45.39236657	      1.69799410	     58.03782779
      3.52083330	    -12.88282573	     -0.86055771	     -4.09440184	      0.28739527	      0.91085529	     -0.06822507	      8.30172542	     -3.65447163	     -0.53859110	      0.88909384	      0.01551761	      4.25981874	     -6.50781944	     -7.49999987	      7.23176309	     -5.91394429	     -0.72972114	      0.74207614	      0.01295167	      4.95149548	     -5.30969497	     -7.49999987	      0.25515877	      0.90583560	     -4.62742986	     -4.41486675	    -15.34827237	     11.59150129	      8.48557924	     57.85188900	    -11.38531670	    -13.47480992	     43.54976407	      1.66967693	     58.01643196
      3.52500000	    -12.87363413	     -0.86405920	     -4.14765389	      0.28787533	      0.90846352	     -0.06927469	      8.27073927	     -3.66836395	     -0.51549293	      0.91433812	      0.01595821	      4.32803460	     -6.65879461	     -7.49999987	      7.19285882	     -5.92637159	     -0.90612295	      0.76073040	      0.01327725	      5.06622730	     -5.22660980	     -7.49999987	      0.33485126	      0.89334731	     -4.09200264	     -5.17457519	    -15.35079892	      7.91236170	      9.66689208	     58.47221930	    -11.15006302	    -13.49105585	     41.34641812	      1.53505037	     58.43199708
      3.52916670	    -12.93200013	     -0.85875068	     -4.15594431	      0.28911007	      0.90980498	     -0.06837794	      8.29357021	     -3.64554635	     -0.41035034	      0.91956720	      0.01604948	      4.24294036	     -7.08630936	     -7.49999987	      7.23464741	     -5.96356321	     -1.09947263	      0.80047026	      0.01397084	      5.27337387	     -4.98608865	     -7.49999987	      0.58377727	      0.80166803	     -4.21208235	     -5.18414586	    -15.18433869	      5.47462661	      9.73034409	     60.15003666	    -11.65623614	    -13.32900883	     38.57019910	      1.58602385	     57.96435138
      3.53333330	    -12.91007996	     -0.87753937	     -4.18593031	      0.28928646	      0.91042533	     -0.06747490	      8.22935158	     -3.59829022	     -0.58584322	      0.94340483	      0.01646552	      4.48611334	     -6.74300764	     -7.49999987	      7.16855488	     -6.03165904	     -1.23773812	      0.81659163	      0.01425221	      5.31042042	     -4.92058800	     -7.49999987	      0.65066563	      0.73955538	     -3.98635136	     -5.72636587	    -14.95288116	      2.52741606	     10.68318535	     60.19497015	    -11.67915669	    -13.41035855	     36.97213479	      1.60706438	     57.87495567
